<svg version="1.1" id="Layer_1" xmlns="http://www.w3.org/2000/svg" xmlns:xlink="http://www.w3.org/1999/xlink" x="0px" y="0px"
	 width="100%" viewBox="0 0 1024 1024" enable-background="new 0 0 1024 1024" xml:space="preserve">
<path fill="#000000" opacity="1.000000" stroke="none" 
	d="
M345.878479,210.777649 
	C382.541687,190.444550 421.446930,177.859451 462.458710,171.845184 
	C484.556427,168.604614 506.897552,167.561234 529.173706,168.831818 
	C604.751465,173.142563 673.072144,197.316528 731.973999,245.557983 
	C794.598755,296.848511 833.793762,362.572723 850.075439,441.815552 
	C855.752563,469.446167 857.818481,497.549713 856.156555,525.678711 
	C851.731934,600.569824 826.975586,667.965942 779.616638,726.521851 
	C737.911194,778.087646 685.428894,814.432800 622.628052,835.730042 
	C594.638550,845.221924 565.840637,850.643921 536.289795,852.461792 
	C464.015167,856.907776 396.938812,840.218018 335.018768,803.024231 
	C284.523682,772.693115 245.191376,731.268860 215.924133,680.259460 
	C196.288239,646.036377 183.174515,609.373779 175.862503,570.631042 
	C170.744705,543.514282 169.299576,516.065491 170.904343,488.627594 
	C173.988724,435.891357 188.056183,386.105560 214.469482,340.187195 
	C246.184433,285.052094 289.919250,241.920029 345.878479,210.777649 
M273.268982,714.231812 
	C294.494995,739.167664 319.013885,760.277161 346.803619,777.601746 
	C394.446564,807.303223 446.521332,822.793396 502.405060,825.534729 
	C526.228027,826.703247 549.891541,824.374695 573.314087,819.735596 
	C646.120300,805.315491 706.487122,769.514465 754.332642,713.055969 
	C786.812378,674.729370 808.599060,630.694214 820.461243,581.781067 
	C826.406738,557.264771 829.110657,532.325745 829.318726,507.230835 
	C829.439453,492.674500 828.009155,478.048798 825.775574,463.541351 
	C821.168396,433.617035 813.248169,404.684113 800.335266,377.288879 
	C771.635803,316.401672 727.379333,269.838226 668.662720,237.310074 
	C612.469910,206.180161 552.050781,193.536469 487.928101,198.181122 
	C467.950958,199.628143 448.327423,202.834320 429.071686,208.102951 
	C364.990967,225.636292 311.650360,260.069427 268.954437,310.912842 
	C223.624191,364.893280 201.305359,427.828674 197.476303,497.649109 
	C196.263367,519.766174 198.292404,541.800476 202.202408,563.663330 
	C212.284012,620.034973 236.396698,669.748352 273.268982,714.231812 
z"/>
<path fill="#000000" opacity="1.000000" stroke="none" 
	d="
M466.234039,462.206848 
	C480.293152,453.850800 494.102905,445.788605 507.747406,437.455688 
	C511.357971,435.250641 514.239502,435.322723 517.867798,437.414398 
	C561.584656,462.617249 605.361267,487.716675 649.169556,512.760315 
	C653.550171,515.264587 655.458069,518.558105 655.421875,523.680115 
	C655.252258,547.671509 655.258362,571.665344 655.414429,595.656982 
	C655.447693,600.772217 653.470581,603.977966 649.112854,606.535950 
	C606.032471,631.824158 562.988403,657.174988 520.049683,682.702698 
	C515.567383,685.367371 511.982239,685.292358 507.632050,682.771606 
	C482.707092,668.328247 457.700745,654.024963 432.696289,639.719177 
	C414.917969,629.547668 397.234161,619.197632 379.226868,609.446777 
	C372.709076,605.917480 370.280701,601.395386 370.748199,594.218384 
	C371.396942,584.259399 371.400055,574.257568 371.645447,564.273254 
	C371.787445,558.496094 373.596802,557.230713 378.651550,560.082520 
	C391.413361,567.282532 404.039215,574.723267 416.728027,582.052917 
	C445.426117,598.630249 474.149048,615.164734 502.805695,631.813477 
	C506.412903,633.909058 509.441254,633.787476 513.008972,631.644287 
	C542.417603,613.978149 571.918152,596.465088 601.361511,578.856689 
	C610.787842,573.219299 610.788574,563.245544 601.149353,557.628418 
	C573.522400,541.529297 545.783813,525.621765 518.082703,509.649994 
	C498.175293,498.171906 478.248932,486.726624 458.350555,475.232941 
	C453.387543,472.366211 453.347717,469.919586 458.159363,466.932556 
	C460.704437,465.352600 463.332306,463.906097 466.234039,462.206848 
z"/>
<path fill="#000000" opacity="1.000000" stroke="none" 
	d="
M493.585327,587.483276 
	C454.849213,565.230347 416.454041,543.122131 377.994568,521.126343 
	C373.472290,518.539978 371.483643,515.303650 371.535889,509.893707 
	C371.783752,484.233063 371.837311,458.566254 371.506500,432.907471 
	C371.428558,426.861603 373.676636,423.490051 378.662628,420.565155 
	C417.737976,397.642883 456.704956,374.535858 495.697418,351.472321 
	C499.712158,349.097656 503.673859,346.633362 507.661865,344.213440 
	C510.939758,342.224396 514.092346,342.189514 517.520386,344.176910 
	C550.085449,363.056702 582.690613,381.867157 615.299500,400.671204 
	C626.407715,407.076813 637.492004,413.529236 648.722717,419.714264 
	C653.347961,422.261475 655.429565,425.773804 655.380249,430.986328 
	C655.266846,442.983582 655.366760,454.982666 655.336609,466.980896 
	C655.319458,473.795166 653.539185,474.985901 647.656128,471.615814 
	C626.124390,459.281433 604.678467,446.797089 583.200989,434.368042 
	C562.011536,422.105682 540.737061,409.986298 519.697266,397.472412 
	C514.728516,394.517151 510.955750,394.653839 506.060760,397.614746 
	C478.986389,413.991669 451.786102,430.164459 424.459625,446.117157 
	C419.038849,449.281738 416.647766,453.059631 416.937256,459.351379 
	C417.358093,468.498138 417.281952,477.683167 417.015198,486.840118 
	C416.871368,491.778442 418.681396,494.911682 422.952057,497.330566 
	C449.330292,512.270569 475.624237,527.359558 501.946808,542.397827 
	C518.578003,551.899292 535.224670,561.373596 551.833130,570.914551 
	C556.814636,573.776245 556.786560,576.118164 551.855774,579.096863 
	C541.736206,585.210083 531.552917,591.219360 521.492432,597.428101 
	C517.975586,599.598450 514.859314,599.722656 511.279968,597.537476 
	C505.597229,594.068237 499.708557,590.936340 493.585327,587.483276 
z"/>
<path fill="#000000" opacity="1.000000" stroke="none" 
	d="
M656.887573,713.905212 
	C651.564697,700.741699 646.542114,687.868530 641.131592,675.160583 
	C639.714661,671.832642 640.366638,670.064575 643.070007,668.090698 
	C646.831238,665.344421 650.389465,662.309998 653.936218,659.283691 
	C656.200500,657.351685 658.048279,657.431641 660.569092,659.163696 
	C674.829529,668.961914 688.825317,679.166565 703.830505,688.091370 
	C704.297791,686.247864 703.067261,685.159302 702.424255,683.910278 
	C695.105225,669.692993 687.836731,655.448364 680.343384,641.323120 
	C678.759827,638.338135 679.236755,636.670044 681.821045,634.696716 
	C687.049011,630.704712 692.038940,626.400940 697.665344,621.783936 
	C699.976013,626.448181 701.886902,630.290039 703.784485,634.138428 
	C713.950378,654.755615 724.026245,675.418213 734.353271,695.954407 
	C736.310303,699.846130 736.318054,702.486084 732.710815,705.343384 
	C727.755371,709.268494 722.937683,713.433716 718.511292,717.938538 
	C715.210999,721.297180 712.682861,720.760010 709.188782,718.339966 
	C698.373169,710.848694 687.345093,703.664368 676.415100,696.337646 
	C674.798157,695.253723 673.249695,694.079773 670.526123,693.582703 
	C675.760010,707.002258 680.760254,719.816467 685.753662,732.633362 
	C686.357666,734.183777 686.807739,735.805908 687.535767,737.293701 
	C688.871887,740.023865 688.176880,741.925354 685.754028,743.702271 
	C680.382080,747.642151 675.131165,751.748901 669.878662,755.848755 
	C667.836426,757.442932 666.115540,757.998962 663.689575,756.172424 
	C641.064819,739.138550 618.351257,722.222473 595.676819,705.254578 
	C595.044678,704.781555 594.560364,704.111023 593.647827,703.156799 
	C600.380005,697.840637 607.356323,693.397461 614.492859,689.219055 
	C616.903137,687.807861 618.516296,690.032227 620.125427,691.345154 
	C631.998901,701.033203 643.826904,710.776794 655.686890,720.481384 
	C657.076538,721.618469 658.573669,722.624207 660.480103,724.029236 
	C660.005249,720.096252 658.136230,717.309265 656.887573,713.905212 
z"/>
<path fill="#000000" opacity="1.000000" stroke="none" 
	d="
M591.624268,263.723755 
	C595.243835,256.370392 598.758728,249.384933 602.170593,242.349472 
	C603.266479,240.089706 604.369446,238.878754 607.144592,240.216309 
	C620.329285,246.571228 633.613708,252.719315 646.799561,259.071838 
	C651.908691,261.533295 656.630981,264.709198 660.960205,268.368073 
	C670.797546,276.682251 675.449707,287.028595 673.510559,300.132690 
	C671.913330,310.926300 667.755432,320.624847 661.374451,329.286377 
	C650.375122,344.216675 635.739197,348.907776 617.740601,343.075958 
	C600.245483,337.407288 584.387146,328.121552 568.175110,319.646912 
	C565.056335,318.016571 566.122437,316.064514 567.198059,313.874908 
	C574.313904,299.388885 581.412292,284.894318 588.504822,270.396820 
	C589.528503,268.304291 590.489563,266.181183 591.624268,263.723755 
M635.914368,277.604614 
	C631.598022,275.458435 627.189880,273.475555 622.993774,271.115631 
	C619.494812,269.147797 617.742249,270.119690 616.213989,273.624207 
	C613.890747,278.951935 611.127686,284.088074 608.545837,289.302795 
	C604.971252,296.522583 601.391418,303.739746 597.797729,310.990601 
	C598.894470,311.654449 599.429565,312.054901 600.023682,312.326019 
	C605.918823,315.016846 611.772156,317.807922 617.737305,320.334625 
	C627.966370,324.667480 633.992920,322.908936 640.644592,313.978760 
	C643.664795,309.923889 645.811401,305.389709 647.189514,300.608734 
	C648.030640,297.690399 648.940674,294.716583 648.208923,291.360718 
	C646.737976,284.614380 642.197388,280.896057 635.914368,277.604614 
z"/>
<path fill="#000000" opacity="1.000000" stroke="none" 
	d="
M397.347412,723.462769 
	C402.321167,709.699463 407.138885,696.295166 412.108521,682.468079 
	C421.378571,685.981201 430.047272,689.261963 438.712616,692.551636 
	C448.809357,696.384644 459.217163,699.447876 468.835754,704.469360 
	C481.373138,711.014648 486.313660,720.380920 484.216736,733.347107 
	C482.113373,746.353027 473.841949,755.004944 460.871857,757.284973 
	C457.593506,757.861328 457.322723,759.106140 457.933746,762.005005 
	C460.117920,772.367371 462.018768,782.789368 463.995544,793.026733 
	C462.557037,794.611145 461.306396,793.416321 460.112640,793.212402 
	C458.980316,793.019043 457.884766,792.552490 456.803192,792.129028 
	C450.503571,789.662720 442.103302,789.800171 438.203979,784.751099 
	C433.967346,779.265198 435.188324,770.780579 433.643372,763.678955 
	C432.985352,760.654358 433.855286,756.666138 431.369476,754.811768 
	C427.543671,751.958008 422.619690,750.894409 417.985382,749.606812 
	C415.775818,748.992859 415.261810,751.131836 414.677795,752.606567 
	C412.474457,758.170410 410.084778,763.686829 408.335693,769.395935 
	C406.914398,774.035095 404.685455,774.450684 400.670471,772.555969 
	C396.168610,770.431580 391.482666,768.641052 386.756256,767.067383 
	C383.326263,765.925354 382.472656,764.400024 383.803467,760.866516 
	C388.430969,748.580322 392.753113,736.179077 397.347412,723.462769 
M425.131500,721.415771 
	C424.825470,724.103638 420.897491,727.632812 424.519226,729.264343 
	C432.044220,732.654358 439.829681,735.946655 448.175140,736.832153 
	C452.836792,737.326599 456.576172,734.021545 457.573639,729.487183 
	C458.578735,724.918030 456.853424,721.567932 452.592316,719.792786 
	C447.991272,717.876099 443.283630,716.209167 438.592957,714.514954 
	C429.030212,711.060974 429.022034,711.083618 425.131500,721.415771 
z"/>
<path fill="#000000" opacity="1.000000" stroke="none" 
	d="
M427.316620,263.518433 
	C423.880615,265.268433 420.656342,266.671600 417.674042,268.474945 
	C413.256195,271.146362 409.382538,271.730927 403.881958,270.137390 
	C395.285431,267.646851 387.257568,271.466400 380.649353,277.445221 
	C378.513245,279.377869 378.761963,282.068939 380.028198,284.376404 
	C381.437866,286.945129 383.775787,288.023682 386.784576,287.317749 
	C393.275818,285.794739 399.465179,283.376770 405.720581,281.125427 
	C414.336700,278.024384 422.928986,275.527985 432.445099,277.284302 
	C447.818817,280.121735 457.211151,302.196960 448.528564,316.112183 
	C445.481476,320.995605 441.823395,325.188873 436.869293,328.210571 
	C425.754395,334.990021 414.289276,340.979919 401.451569,343.820892 
	C387.543701,346.898621 375.429413,341.249847 369.029877,328.295319 
	C375.865204,324.776550 382.714905,321.214355 389.608124,317.738403 
	C390.719513,317.177948 391.830505,317.853149 392.926605,318.321564 
	C401.929352,322.168945 418.731812,317.711426 424.654633,309.951080 
	C427.517273,306.200287 425.664124,301.867493 420.875519,301.291443 
	C417.325989,300.864471 413.984009,301.778595 410.656586,303.002563 
	C403.021637,305.811096 395.454590,308.820282 387.475067,310.616882 
	C370.767700,314.378601 359.273315,307.850067 354.495880,291.576080 
	C352.001495,283.079193 353.759674,274.911041 359.681305,268.763458 
	C373.223267,254.704727 389.531433,245.506668 409.560944,244.730148 
	C419.553894,244.342743 425.825928,250.483185 430.654297,258.382935 
	C432.684479,261.704559 429.376007,262.131683 427.316620,263.518433 
z"/>
<path fill="#000000" opacity="1.000000" stroke="none" 
	d="
M531.890198,797.276855 
	C526.126526,797.226501 520.943054,799.063660 515.378662,798.334961 
	C513.056458,792.415344 513.569336,785.985657 512.910339,779.804504 
	C511.133484,763.137634 510.040863,746.398315 508.622437,729.692383 
	C508.201416,724.734009 507.716797,719.774902 507.035583,714.847290 
	C506.664734,712.164917 507.232727,710.968140 510.204712,710.619019 
	C531.446899,708.123535 552.671448,705.476685 573.894043,702.817261 
	C576.705811,702.464966 578.299500,703.127869 578.557800,706.272400 
	C578.964539,711.224426 579.644592,716.153870 580.194519,721.094421 
	C580.511597,723.943176 578.669189,724.176941 576.463867,724.450989 
	C563.957336,726.004944 551.481506,727.816650 538.961670,729.246704 
	C535.369019,729.657043 533.587036,730.445007 535.012085,734.421936 
	C535.498291,735.778625 535.314453,737.386780 535.373352,738.882507 
	C535.459961,741.084961 536.724670,741.767456 538.701172,741.517700 
	C550.216492,740.062500 561.748413,738.719727 573.233093,737.052185 
	C576.617432,736.560791 578.500000,737.058838 578.287231,740.820923 
	C578.069214,744.676575 578.810242,748.436523 579.289856,752.225403 
	C579.717834,755.606567 578.740967,757.177490 574.810303,757.511597 
	C563.740784,758.452393 552.737183,760.149353 541.674805,761.204651 
	C538.088074,761.546814 537.270569,763.089844 537.308838,766.298462 
	C537.402405,774.150879 539.011169,775.297974 546.800720,774.277405 
	C559.611694,772.598999 572.483704,771.386719 585.537781,769.955078 
	C587.521240,776.657959 587.069336,783.489685 588.113892,791.060547 
	C569.414612,793.134155 550.879456,795.189575 531.890198,797.276855 
z"/>
<path fill="#000000" opacity="1.000000" stroke="none" 
	d="
M333.375549,631.895386 
	C360.334869,629.638428 384.486176,647.083069 389.759338,672.465759 
	C391.738098,681.990662 388.925903,690.735596 384.433624,699.851868 
	C377.531830,695.085083 371.124298,690.687378 364.751068,686.240356 
	C362.923096,684.964844 363.817932,683.408997 364.347687,681.780090 
	C367.167053,673.111450 364.760193,666.156555 357.070374,660.395020 
	C348.736603,654.151001 342.598022,653.631897 334.671722,659.277588 
	C326.917480,664.800720 320.732605,671.609985 319.196259,681.599976 
	C317.454773,692.923950 330.339996,704.254333 338.648895,705.559448 
	C341.815216,706.056763 344.616119,704.836365 347.084778,703.096558 
	C349.450104,701.429688 351.285187,701.813782 353.300354,703.596680 
	C357.541473,707.349182 361.860474,711.014160 366.167542,714.691528 
	C368.390076,716.589111 368.700836,718.308044 366.228516,720.383301 
	C356.011017,728.960510 344.436951,732.472229 331.899597,727.253296 
	C313.240021,719.485840 299.920197,706.133362 295.442169,685.886414 
	C291.868805,669.729614 298.658905,656.624817 309.964417,645.506897 
	C316.486450,639.093140 324.050476,634.372986 333.375549,631.895386 
z"/>
<path fill="#000000" opacity="1.000000" stroke="none" 
	d="
M477.065063,250.048279 
	C475.243622,250.027847 473.909668,249.950317 472.580872,250.002869 
	C469.103912,250.140366 467.384308,248.840103 467.595764,245.033752 
	C467.853943,240.386368 467.741669,235.712097 467.634888,231.052994 
	C467.566772,228.081131 468.794403,226.879822 471.781860,226.912430 
	C497.911926,227.197784 524.042603,227.438538 550.173645,227.611557 
	C553.085205,227.630844 554.441223,228.573364 554.347046,231.652328 
	C554.199524,236.475861 554.184448,241.311752 554.355042,246.133850 
	C554.473206,249.476440 552.985901,250.454910 549.861877,250.375443 
	C543.705750,250.218826 537.543030,250.316025 531.382996,250.316956 
	C524.354065,250.318024 524.352295,250.322159 524.349121,257.596222 
	C524.341614,274.910889 524.195740,292.227386 524.423767,309.538940 
	C524.484192,314.124298 523.076660,315.756653 518.485962,315.449219 
	C513.347717,315.105103 508.160339,315.178802 503.010742,315.420502 
	C499.013458,315.608124 497.839691,313.947357 497.865601,310.136810 
	C497.985657,292.490326 497.905579,274.842377 497.881317,257.194977 
	C497.871948,250.364273 497.852783,250.363922 491.037598,250.258011 
	C486.543365,250.188156 482.049164,250.119598 477.065063,250.048279 
z"/>
</svg>